GIL11_slow2_ik
nRows=3
nColumns=375

# SIMM Motion File Header:
name GIL11_slow2_ik
datacolumns 375
datarows 3
otherdata 1
range 0.91667000 0.93333000
endheader
time	pelvis_tx	pelvis_ty	pelvis_tz	pelvis_tilt	pelvis_list	pelvis_rotation	hip_flexion_r	hip_adduction_r	hip_rotation_r	knee_angle_r	ankle_angle_r	hip_flexion_l	hip_adduction_l	hip_rotation_l	knee_angle_l	ankle_angle_l	lumbar_extension	lumbar_bending	lumbar_rotation	subtalar_angle_r	mtp_angle_r	subtalar_angle_l	mtp_angle_l	asis_r_px	asis_r_py	asis_r_pz	asis_l_px	asis_l_py	asis_l_pz	midasis_px	midasis_py	midasis_pz	psis_r_px	psis_r_py	psis_r_pz	psis_l_px	psis_l_py	psis_l_pz	hip_r_px	hip_r_py	hip_r_pz	hip_l_px	hip_l_py	hip_l_pz	midhip_px	midhip_py	midhip_pz	epicondLat_r_px	epicondLat_r_py	epicondLat_r_pz	epicondMed_r_px	epicondMed_r_py	epicondMed_r_pz	thighwand_r_px	thighwand_r_py	thighwand_r_pz	upperleg1_r_px	upperleg1_r_py	upperleg1_r_pz	upperleg2_r_px	upperleg2_r_py	upperleg2_r_pz	malleolusLat_r_px	malleolusLat_r_py	malleolusLat_r_pz	malleolusMedv_r_px	malleolusMedv_r_py	malleolusMedv_r_pz	shankwand_r_px	shankwand_r_py	shankwand_r_pz	lowerleg1_r_px	lowerleg1_r_py	lowerleg1_r_pz	knee_r_px	knee_r_py	knee_r_pz	ankle_r_px	ankle_r_py	ankle_r_pz	toe_r_px	toe_r_py	toe_r_pz	epicondLat_l_px	epicondLat_l_py	epicondLat_l_pz	epicondMed_l_px	epicondMed_l_py	epicondMed_l_pz	thighwand_l_px	thighwand_l_py	thighwand_l_pz	upperleg1_l_px	upperleg1_l_py	upperleg1_l_pz	upperleg2_l_px	upperleg2_l_py	upperleg2_l_pz	malleolusLat_l_px	malleolusLat_l_py	malleolusLat_l_pz	malleolusMedv_l_px	malleolusMedv_l_py	malleolusMedv_l_pz	shankwand_l_px	shankwand_l_py	shankwand_l_pz	lowerleg1_l_px	lowerleg1_l_py	lowerleg1_l_pz	knee_l_px	knee_l_py	knee_l_pz	ankle_l_px	ankle_l_py	ankle_l_pz	toe_l_px	toe_l_py	toe_l_pz	subclavicle_r_px	subclavicle_r_py	subclavicle_r_pz	subclavicle_l_px	subclavicle_l_py	subclavicle_l_pz	neck_px	neck_py	neck_pz	sternalnotch_px	sternalnotch_py	sternalnotch_pz	xyphoidprocess_px	xyphoidprocess_py	xyphoidprocess_pz	midhip_tx	midhip_ty	midhip_tz	hip_r_tx	hip_r_ty	hip_r_tz	hip_l_tx	hip_l_ty	hip_l_tz	knee_r_tx	knee_r_ty	knee_r_tz	knee_l_tx	knee_l_ty	knee_l_tz	ankle_r_tx	ankle_r_ty	ankle_r_tz	ankle_l_tx	ankle_l_ty	ankle_l_tz	midasis_tx	midasis_ty	midasis_tz	asis_r_tx	asis_r_ty	asis_r_tz	asis_l_tx	asis_l_ty	asis_l_tz	psis_r_tx	psis_r_ty	psis_r_tz	psis_l_tx	psis_l_ty	psis_l_tz	epicondLat_r_tx	epicondLat_r_ty	epicondLat_r_tz	epicondLat_l_tx	epicondLat_l_ty	epicondLat_l_tz	epicondMed_r_tx	epicondMed_r_ty	epicondMed_r_tz	epicondMed_l_tx	epicondMed_l_ty	epicondMed_l_tz	malleolusLat_r_tx	malleolusLat_r_ty	malleolusLat_r_tz	malleolusLat_l_tx	malleolusLat_l_ty	malleolusLat_l_tz	malleolusMedv_r_tx	malleolusMedv_r_ty	malleolusMedv_r_tz	malleolusMedv_l_tx	malleolusMedv_l_ty	malleolusMedv_l_tz	neck_tx	neck_ty	neck_tz	subclavicle_r_tx	subclavicle_r_ty	subclavicle_r_tz	subclavicle_l_tx	subclavicle_l_ty	subclavicle_l_tz	sternalnotch_tx	sternalnotch_ty	sternalnotch_tz	xyphoidprocess_tx	xyphoidprocess_ty	xyphoidprocess_tz	thighwand_r_tx	thighwand_r_ty	thighwand_r_tz	thighwand_l_tx	thighwand_l_ty	thighwand_l_tz	upperleg1_r_tx	upperleg1_r_ty	upperleg1_r_tz	upperleg1_l_tx	upperleg1_l_ty	upperleg1_l_tz	upperleg2_r_tx	upperleg2_r_ty	upperleg2_r_tz	upperleg2_l_tx	upperleg2_l_ty	upperleg2_l_tz	shankwand_r_tx	shankwand_r_ty	shankwand_r_tz	shankwand_l_tx	shankwand_l_ty	shankwand_l_tz	lowerleg1_r_tx	lowerleg1_r_ty	lowerleg1_r_tz	lowerleg1_l_tx	lowerleg1_l_ty	lowerleg1_l_tz	toe_r_tx	toe_r_ty	toe_r_tz	toe_l_tx	toe_l_ty	toe_l_tz	ground_force_vx	ground_force_vy	ground_force_vz	ground_force_px	ground_force_py	ground_force_pz	ground_force_vx	ground_force_vy	ground_force_vz	ground_force_px	ground_force_py	ground_force_pz	ground_torque_x	ground_torque_y	ground_torque_z	ground_torque_x	ground_torque_y	ground_torque_z	ground_marker_px	ground_marker_py	ground_marker_pz	ground_marker_px	ground_marker_py	ground_marker_pz	ground_marker_px	ground_marker_py	ground_marker_pz	ground_marker_px	ground_marker_py	ground_marker_pz	ground_marker_px	ground_marker_py	ground_marker_pz	ground_marker_px	ground_marker_py	ground_marker_pz	ground_marker_px	ground_marker_py	ground_marker_pz	ground_marker_px	ground_marker_py	ground_marker_pz	ground_marker_px	ground_marker_py	ground_marker_pz	ground_marker_px	ground_marker_py	ground_marker_pz	ground_marker_px	ground_marker_py	ground_marker_pz	ground_marker_px	ground_marker_py	ground_marker_pz	ground_marker_px	ground_marker_py	ground_marker_pz	ground_marker_px	ground_marker_py	ground_marker_pz	ground_marker_px	ground_marker_py	ground_marker_pz	ground_marker_px	ground_marker_py	ground_marker_pz	ground_marker_px	ground_marker_py	ground_marker_pz	ground_marker_px	ground_marker_py	ground_marker_pz	ground_marker_px	ground_marker_py	ground_marker_pz	ground_marker_px	ground_marker_py	ground_marker_pz	ground_marker_px	ground_marker_py	ground_marker_pz	ground_marker_px	ground_marker_py	ground_marker_pz	ground_marker_px	ground_marker_py	ground_marker_pz	ground_marker_px	ground_marker_py	ground_marker_pz	ground_marker_px	ground_marker_py	ground_marker_pz	ground_marker_px	ground_marker_py	ground_marker_pz	ground_marker_px	ground_marker_py	ground_marker_pz	ground_marker_px	ground_marker_py	ground_marker_pz	ground_marker_px	ground_marker_py	ground_marker_pz	ground_marker_px	ground_marker_py	ground_marker_pz	ground_marker_px	ground_marker_py	ground_marker_pz	ground_marker_px	ground_marker_py	ground_marker_pz	ground_marker_px	ground_marker_py	ground_marker_pz	ground_marker_px	ground_marker_py	ground_marker_pz	ground_marker_px	ground_marker_py	ground_marker_pz	ground_marker_px	ground_marker_py	ground_marker_pz	ground_marker_px	ground_marker_py	ground_marker_pz
      0.91667000	      1.97409788	      0.85547413	     -0.26311224	     -5.75726003	     -5.62952703	      6.35544902	     18.71334895	      3.84956707	     10.46201229	     -0.20956592	    -10.09887646	     -9.23881765	     -6.70881156	     11.94821112	    -24.67966773	     -5.43249592	      1.94350370	      6.07036426	     -3.21732395	      0.00000000	      0.00000000	      0.00000000	      0.00000000	      2.03456604	      0.84958584	     -0.15791026	      2.00487297	      0.83288462	     -0.39066727	      1.98680494	      0.85405257	     -0.26452944	      1.83994251	      0.93342832	     -0.22467991	      1.82959768	      0.92591473	     -0.27787222	      1.91306467	      0.80910216	     -0.17410813	      1.89466250	      0.79592074	     -0.32588611	      1.90386358	      0.80251145	     -0.24999712	      2.03536636	      0.43398671	     -0.12616787	      1.99979320	      0.42653580	     -0.23745196	      2.13048808	      0.59490601	     -0.24456649	      2.07331779	      0.63595841	     -0.17401970	      2.07984379	      0.54835959	     -0.16839542	      2.06819667	      0.05995075	     -0.12844623	      2.07842465	      0.06584543	     -0.20291041	      2.06107085	      0.13826090	     -0.06181600	      2.05352641	      0.14577858	     -0.10481543	      1.98984700	      0.43930700	     -0.17615489	      2.06833665	      0.07463118	     -0.17907197	      2.18038216	      0.03441610	     -0.14578814	      1.82310520	      0.40523950	     -0.39312484	      1.81105927	      0.41805232	     -0.27047821	      1.89914745	      0.52014700	     -0.47263928	      1.84900239	      0.58715450	     -0.42108907	      1.83076743	      0.50190643	     -0.40759718	      1.53520494	      0.14187277	     -0.39673402	      1.54918310	      0.13751718	     -0.32759372	      1.69153563	      0.16401702	     -0.33452128	      1.66031400	      0.19015332	     -0.34576018	      1.79222352	      0.43007224	     -0.32658964	      1.55192169	      0.14534718	     -0.34514395	      1.59616164	      0.03980198	     -0.37676644	      1.97664499	      1.31570630	     -0.20674134	      1.97298786	      1.31322590	     -0.31255116	      1.84391622	      1.35180931	     -0.25153165	      1.97198184	      1.31060371	     -0.25892227	      2.02421945	      1.25000186	     -0.26314185	      1.91242100	      0.81360100	     -0.24839200	      1.90715100	      0.79620000	     -0.17715300	      1.88351300	      0.78705300	     -0.32715400	      1.98832000	      0.43294700	     -0.18560100	      1.78132800	      0.41502900	     -0.34342600	      2.06815000	      0.06580200	     -0.19499600	      1.54606000	      0.14113300	     -0.32145100	      1.98665600	      0.86277300	     -0.26780000	      2.00122100	      0.86991000	     -0.15033500	      1.97209100	      0.85563600	     -0.38526600	      1.79516300	      0.93065200	     -0.21293300	      1.78798900	      0.92390100	     -0.26663700	      2.00619900	      0.43566100	     -0.13049200	      1.78803800	      0.41570500	     -0.40103300	      1.96727000	      0.42607400	     -0.23199800	      1.81370700	      0.41656800	     -0.27897700	      2.05940400	      0.06290500	     -0.15607200	      1.53108900	      0.15112600	     -0.35717200	      2.07326500	      0.07653100	     -0.22881000	      1.56101000	      0.14183700	     -0.29867800	      1.84357500	      1.36124200	     -0.25102300	      1.97667600	      1.30554000	     -0.20709800	      1.97164100	      1.30027300	     -0.31423700	      1.97070100	      1.29929000	     -0.25986700	      2.01408500	      1.23210800	     -0.26236100	      2.10045200	      0.59156700	     -0.23453600	      1.86194300	      0.54114500	     -0.48208400	      2.04614000	      0.63147200	     -0.16188700	      1.81360000	      0.59736300	     -0.42038300	      2.05138200	      0.54348500	     -0.16022900	      1.80620000	      0.51018800	     -0.41100300	      2.04369000	      0.13994400	     -0.08324500	      1.69932800	      0.17547900	     -0.33330300	      2.03980900	      0.14810700	     -0.12564500	      1.66478100	      0.20141900	     -0.33617300	      2.17310500	      0.04258800	     -0.17112600	      1.60123100	      0.04986200	     -0.35144300	    -68.61994637	    470.35540378	    -27.66994779	      2.07213086	      0.00000000	     -0.18975534	     29.18717201	    105.83049412	     -2.42930157	      1.62646118	      0.00000000	     -0.33686783	      0.00000000	      0.00156696	      0.00000000	      0.00000000	      0.08385522	      0.00000000	      1.91242146	      0.81360149	     -0.24839169	      1.90715098	      0.79620004	     -0.17715286	      1.88351297	      0.78705275	     -0.32715410	      1.98831999	      0.43294740	     -0.18560064	      1.78132772	      0.41502863	     -0.34342611	      2.06815028	      0.06580246	     -0.19499581	      1.54605961	      0.14113264	     -0.32145083	      1.98665595	      0.86277282	     -0.26780012	      2.00122142	      0.86990976	     -0.15033455	      1.97209060	      0.85563588	     -0.38526571	      1.79516268	      0.93065232	     -0.21293300	      1.78798866	      0.92390054	     -0.26663682	      2.00619912	      0.43566087	     -0.13049187	      1.78803825	      0.41570508	     -0.40103266	      1.96726966	      0.42607439	     -0.23199803	      1.81370687	      0.41656759	     -0.27897739	      2.05940366	      0.06290452	     -0.15607157	      1.53108919	      0.15112570	     -0.35717234	      2.07326531	      0.07653079	     -0.22881049	      1.56101012	      0.14183745	     -0.29867834	      1.84357476	      1.36124194	     -0.25102347	      1.97667575	      1.30554008	     -0.20709822	      1.97164142	      1.30027330	     -0.31423721	      1.97070086	      1.29929042	     -0.25986749	      2.01408529	      1.23210764	     -0.26236108	      2.10045242	      0.59156656	     -0.23453616	      1.86194313	      0.54114467	     -0.48208362	      2.04613972	      0.63147169	     -0.16188663	      1.81360042	      0.59736300	     -0.42038265	      2.05138183	      0.54348516	     -0.16022857	      1.80619967	      0.51018792	     -0.41100273	      2.04368997	      0.13994434	     -0.08324511	      1.69932795	      0.17547922	     -0.33330256	      2.03980947	      0.14810692	     -0.12564503	      1.66478062	      0.20141904	     -0.33617333	      2.17310452	      0.04258773	     -0.17112562	      1.60123074	      0.04986166	     -0.35144264
      0.92500000	      1.98258156	      0.85729039	     -0.26051464	     -5.62410648	     -5.88752864	      6.03002012	     18.10852408	      4.46351688	     10.66362476	     -0.36623135	     -9.71588365	     -8.71365596	     -7.22025886	     11.72944174	    -26.39950731	     -7.64441740	      1.98859116	      6.29462292	     -2.85349480	      0.00000000	      0.00000000	      0.00000000	      0.00000000	      2.04252025	      0.85210752	     -0.15497308	      2.01408244	      0.83414866	     -0.38779320	      1.99529984	      0.85589866	     -0.26185893	      1.84800475	      0.93504674	     -0.22317038	      1.83795750	      0.92723546	     -0.27637683	      1.92122161	      0.81118980	     -0.17159424	      1.90364456	      0.79719111	     -0.32339684	      1.91243309	      0.80419046	     -0.24749554	      2.04014329	      0.43483662	     -0.12486633	      2.00455470	      0.42807843	     -0.23618971	      2.13675282	      0.59529623	     -0.24268276	      2.07992030	      0.63662070	     -0.17202198	      2.08566035	      0.54894860	     -0.16668997	      2.06865096	      0.06037058	     -0.12806414	      2.07899087	      0.06633444	     -0.20250736	      2.06238918	      0.13858962	     -0.06124036	      2.05495773	      0.14630216	     -0.10422497	      1.99471178	      0.44072462	     -0.17485896	      2.06899063	      0.07517592	     -0.17865255	      2.18077889	      0.03425130	     -0.14536856	      1.83666138	      0.40612040	     -0.39304074	      1.82410582	      0.41810678	     -0.27036167	      1.91165186	      0.52231579	     -0.47167765	      1.86060664	      0.58846783	     -0.41990651	      1.84328563	      0.50294685	     -0.40694803	      1.54344803	      0.14722038	     -0.40013430	      1.55707393	      0.14198447	     -0.33098474	      1.69992113	      0.16588480	     -0.33714315	      1.66923556	      0.19269889	     -0.34826117	      1.80551489	      0.42993319	     -0.32643122	      1.56002603	      0.14991919	     -0.34845313	      1.59841938	      0.04220607	     -0.38040275	      1.98367897	      1.31760641	     -0.20530206	      1.97993187	      1.31505225	     -0.31110697	      1.85079007	      1.35324440	     -0.24998985	      1.97898430	      1.31245802	     -0.25747566	      2.03141802	      1.25202670	     -0.26170867	      1.92180100	      0.81621700	     -0.24709300	      1.91496800	      0.79816500	     -0.17503000	      1.89214200	      0.78818500	     -0.32510400	      1.99306400	      0.43409200	     -0.18453400	      1.79400800	      0.41428800	     -0.34446600	      2.06871000	      0.06588700	     -0.19505400	      1.55404000	      0.14557900	     -0.32224300	      1.99474100	      0.86452400	     -0.26559900	      2.00864100	      0.87228500	     -0.14834100	      1.98084000	      0.85676400	     -0.38285700	      1.80300500	      0.93199900	     -0.21268400	      1.79600800	      0.92488800	     -0.26636800	      2.01095400	      0.43649000	     -0.12941400	      1.80095400	      0.41544600	     -0.40203700	      1.97443300	      0.42802000	     -0.23005900	      1.82858300	      0.41472200	     -0.28091300	      2.06001000	      0.06298700	     -0.15611900	      1.53903900	      0.15603300	     -0.35782000	      2.07396700	      0.07643700	     -0.22885600	      1.56951500	      0.14591600	     -0.29950000	      1.85036600	      1.36228300	     -0.24949700	      1.98362700	      1.30732900	     -0.20548800	      1.97869300	      1.30224300	     -0.31277200	      1.97774600	      1.30113400	     -0.25839100	      2.02149800	      1.23422300	     -0.26093700	      2.10717800	      0.59328000	     -0.23327400	      1.87384800	      0.54195100	     -0.48238600	      2.05356400	      0.63326900	     -0.15987000	      1.82519700	      0.59691900	     -0.42024500	      2.05901700	      0.54533300	     -0.15865000	      1.81918300	      0.50985700	     -0.41185800	      2.04532800	      0.14000800	     -0.08304800	      1.70807500	      0.17664900	     -0.33495600	      2.04162700	      0.14810300	     -0.12559300	      1.67408100	      0.20349800	     -0.33778300	      2.17347300	      0.04215100	     -0.17157700	      1.60407400	      0.05087400	     -0.35135200	    -67.72030588	    478.83710104	    -30.00614914	      2.07350562	      0.00000000	     -0.18930380	     19.24068403	     73.32043388	     -2.39486658	      1.62991785	      0.00000000	     -0.33719043	      0.00000000	     -0.10523541	      0.00000000	      0.00000000	      0.08237033	      0.00000000	      1.92180085	      0.81621659	     -0.24709289	      1.91496825	      0.79816496	     -0.17503044	      1.89214242	      0.78818524	     -0.32510442	      1.99306393	      0.43409163	     -0.18453386	      1.79400778	      0.41428822	     -0.34446579	      2.06871009	      0.06588683	     -0.19505364	      1.55403984	      0.14557928	     -0.32224321	      1.99474072	      0.86452419	     -0.26559928	      2.00864124	      0.87228465	     -0.14834143	      1.98084021	      0.85676372	     -0.38285711	      1.80300546	      0.93199873	     -0.21268371	      1.79600847	      0.92488772	     -0.26636833	      2.01095414	      0.43649039	     -0.12941413	      1.80095410	      0.41544625	     -0.40203670	      1.97443259	      0.42801979	     -0.23005882	      1.82858312	      0.41472197	     -0.28091338	      2.06001043	      0.06298713	     -0.15611899	      1.53903937	      0.15603304	     -0.35781997	      2.07396746	      0.07643672	     -0.22885634	      1.56951451	      0.14591628	     -0.29950029	      1.85036576	      1.36228251	     -0.24949668	      1.98362744	      1.30732918	     -0.20548797	      1.97869289	      1.30224276	     -0.31277156	      1.97774553	      1.30113399	     -0.25839102	      2.02149844	      1.23422348	     -0.26093686	      2.10717773	      0.59327984	     -0.23327410	      1.87384808	      0.54195112	     -0.48238629	      2.05356359	      0.63326877	     -0.15987015	      1.82519662	      0.59691912	     -0.42024535	      2.05901694	      0.54533267	     -0.15865037	      1.81918263	      0.50985676	     -0.41185847	      2.04532790	      0.14000803	     -0.08304793	      1.70807493	      0.17664893	     -0.33495581	      2.04162717	      0.14810328	     -0.12559342	      1.67408085	      0.20349829	     -0.33778310	      2.17347288	      0.04215118	     -0.17157699	      1.60407412	      0.05087372	     -0.35135174
      0.93333000	      1.99085904	      0.85901921	     -0.25803216	     -5.47420014	     -6.08574207	      5.71533810	     17.48221027	      5.00364304	     10.69993648	     -0.48517451	     -9.40015240	     -8.13094622	     -7.67589720	     11.36463949	    -28.17308986	     -9.87028771	      1.96260756	      6.48125714	     -2.46031385	      0.00000000	      0.00000000	      0.00000000	      0.00000000	      2.05027397	      0.85444645	     -0.15216675	      2.02308311	      0.83547412	     -0.38505545	      2.00358838	      0.85766286	     -0.25930608	      1.85584671	      0.93649201	     -0.22168389	      1.84609626	      0.92843782	     -0.27490935	      1.92919251	      0.81307533	     -0.16924283	      1.91243575	      0.79841895	     -0.32107612	      1.92081413	      0.80574714	     -0.24515948	      2.04461863	      0.43551027	     -0.12353709	      2.00937563	      0.42949185	     -0.23501276	      2.14306672	      0.59555842	     -0.24038725	      2.08634522	      0.63711348	     -0.16977251	      2.09129211	      0.54937436	     -0.16475743	      2.06908765	      0.06070697	     -0.12782930	      2.07976887	      0.06679516	     -0.20221424	      2.06342169	      0.13877645	     -0.06077785	      2.05623428	      0.14670538	     -0.10376458	      1.99943470	      0.44198476	     -0.17367322	      2.06977580	      0.07566840	     -0.17836823	      2.18118633	      0.03397885	     -0.14476856	      1.85039809	      0.40698943	     -0.39323971	      1.83769879	      0.41802556	     -0.27048629	      1.92390925	      0.52462777	     -0.47112447	      1.87203467	      0.58979430	     -0.41892957	      1.85579694	      0.50397947	     -0.40652275	      1.55206721	      0.15249112	     -0.40310004	      1.56555124	      0.14631885	     -0.33399993	      1.70881156	      0.16768952	     -0.33985218	      1.67862353	      0.19516447	     -0.35071586	      1.81915984	      0.42966281	     -0.32645087	      1.56865780	      0.15437293	     -0.35138671	      1.60100605	      0.04487466	     -0.38395455	      1.99083007	      1.31929698	     -0.20381409	      1.98693463	      1.31670343	     -0.30961268	      1.85778850	      1.35459445	     -0.24831753	      1.98607185	      1.31412216	     -0.25597931	      2.03864820	      1.25381911	     -0.26027199	      1.93084700	      0.81851700	     -0.24609100	      1.92263700	      0.80001200	     -0.17295400	      1.90062000	      0.78935600	     -0.32310200	      1.99765200	      0.43513700	     -0.18350200	      1.80703200	      0.41354200	     -0.34547400	      2.06941300	      0.06595900	     -0.19504200	      1.56268800	      0.14987900	     -0.32296100	      2.00266200	      0.86626600	     -0.26337700	      2.01591100	      0.87452900	     -0.14626500	      1.98941300	      0.85800300	     -0.38048900	      1.81080600	      0.93320100	     -0.21229700	      1.80391800	      0.92581300	     -0.26602600	      2.01537700	      0.43718600	     -0.12831500	      1.81403000	      0.41522500	     -0.40302500	      1.98129500	      0.42945000	     -0.22800500	      1.84407800	      0.41340100	     -0.28153900	      2.06052100	      0.06301600	     -0.15615400	      1.54765900	      0.16078200	     -0.35839100	      2.07432700	      0.07656700	     -0.22885800	      1.57862700	      0.14976700	     -0.30020600	      1.85762600	      1.36372400	     -0.24781800	      1.99064200	      1.30893200	     -0.20424900	      1.98563000	      1.30370600	     -0.31110500	      1.98473100	      1.30290500	     -0.25695600	      2.02847200	      1.23575300	     -0.25941500	      2.11400500	      0.59444600	     -0.23158400	      1.88542600	      0.54283700	     -0.48271300	      2.06076400	      0.63450300	     -0.15781900	      1.83613900	      0.59628000	     -0.42024000	      2.06615900	      0.54669900	     -0.15671800	      1.83190000	      0.50844600	     -0.41205900	      2.04636900	      0.13994100	     -0.08290800	      1.71733400	      0.17781500	     -0.33654900	      2.04266300	      0.14802700	     -0.12533200	      1.68357500	      0.20514500	     -0.33908800	      2.17381900	      0.04169500	     -0.17196600	      1.60740900	      0.05214500	     -0.35120200	    -67.07214139	    486.51896073	    -31.64959824	      2.07480542	      0.00000000	     -0.18897443	     10.72512620	     50.24413119	     -1.67942517	      1.63520691	      0.00000000	     -0.33864288	      0.00000000	     -0.18552905	      0.00000000	      0.00000000	      0.05024780	      0.00000000	      1.93084693	      0.81851667	     -0.24609128	      1.92263734	      0.80001175	     -0.17295390	      1.90061963	      0.78935587	     -0.32310209	      1.99765217	      0.43513703	     -0.18350239	      1.80703163	      0.41354185	     -0.34547356	      2.06941271	      0.06595931	     -0.19504166	      1.56268823	      0.14987917	     -0.32296136	      2.00266194	      0.86626613	     -0.26337698	      2.01591063	      0.87452912	     -0.14626469	      1.98941338	      0.85800308	     -0.38048926	      1.81080568	      0.93320149	     -0.21229725	      1.80391836	      0.92581284	     -0.26602611	      2.01537704	      0.43718565	     -0.12831515	      1.81403005	      0.41522497	     -0.40302518	      1.98129463	      0.42945033	     -0.22800536	      1.84407771	      0.41340107	     -0.28153935	      2.06052113	      0.06301554	     -0.15615360	      1.54765928	      0.16078186	     -0.35839102	      2.07432699	      0.07656741	     -0.22885786	      1.57862663	      0.14976729	     -0.30020568	      1.85762644	      1.36372364	     -0.24781764	      1.99064231	      1.30893171	     -0.20424911	      1.98562980	      1.30370557	     -0.31110474	      1.98473060	      1.30290520	     -0.25695574	      2.02847242	      1.23575330	     -0.25941539	      2.11400485	      0.59444612	     -0.23158355	      1.88542640	      0.54283732	     -0.48271284	      2.06076431	      0.63450277	     -0.15781924	      1.83613884	      0.59627986	     -0.42024034	      2.06615949	      0.54669881	     -0.15671769	      1.83190000	      0.50844634	     -0.41205892	      2.04636884	      0.13994101	     -0.08290757	      1.71733391	      0.17781535	     -0.33654889	      2.04266310	      0.14802724	     -0.12533164	      1.68357503	      0.20514527	     -0.33908793	      2.17381930	      0.04169485	     -0.17196648	      1.60740864	      0.05214543	     -0.35120162
